<svg width="30" height="30" viewBox="0 0 30 30" fill="none" xmlns="http://www.w3.org/2000/svg">
<path d="M23.75 19.1786H24.1786V18.75V18.4375C24.1786 17.1078 23.375 15.8233 22.1756 14.8889C20.9682 13.9484 19.3133 13.3214 17.5 13.3214C15.6867 13.3214 14.0318 13.9484 12.8244 14.8889C11.625 15.8233 10.8214 17.1078 10.8214 18.4375V18.75V19.1786H11.25H23.75ZM10 2.92857H25C25.5494 2.92857 26.0763 3.14681 26.4647 3.53528C26.8532 3.92375 27.0714 4.45062 27.0714 5V20C27.0714 20.5494 26.8532 21.0763 26.4647 21.4647C26.0763 21.8532 25.5494 22.0714 25 22.0714H10C9.45062 22.0714 8.92375 21.8532 8.53528 21.4647C8.14681 21.0763 7.92857 20.5494 7.92857 20V5C7.92857 4.45062 8.14681 3.92375 8.53528 3.53528C8.92375 3.14681 9.45062 2.92857 10 2.92857ZM20.0128 6.23725C19.3463 5.57082 18.4425 5.19643 17.5 5.19643C16.5575 5.19643 15.6537 5.57082 14.9872 6.23725C14.3208 6.90367 13.9464 7.80753 13.9464 8.75C13.9464 9.69247 14.3208 10.5963 14.9872 11.2628C15.6537 11.9292 16.5575 12.3036 17.5 12.3036C18.4425 12.3036 19.3463 11.9292 20.0128 11.2628C20.6792 10.5963 21.0536 9.69247 21.0536 8.75C21.0536 7.80753 20.6792 6.90367 20.0128 6.23725Z" fill="#D6D6D6" stroke="#D6D6D6" stroke-width="0.857143"/>
<path d="M4.57143 24.999V25.4276H5H19.5714V27.0705H5C3.85794 27.0705 2.92857 26.1411 2.92857 24.999V10.4276H4.57143V24.999Z" fill="#D6D6D6" stroke="#D6D6D6" stroke-width="0.857143"/>
</svg>
