<svg width="30" height="30" viewBox="0 0 30 30" fill="none" xmlns="http://www.w3.org/2000/svg">
<path fill-rule="evenodd" clip-rule="evenodd" d="M27.5 15C27.5 21.9036 21.9036 27.5 15 27.5C8.09644 27.5 2.5 21.9036 2.5 15C2.5 8.09644 8.09644 2.5 15 2.5C21.9036 2.5 27.5 8.09644 27.5 15ZM15 9C15.5523 9 16 9.44772 16 10V17.5858L19.2929 14.2929C19.6834 13.9024 20.3166 13.9024 20.7071 14.2929C21.0976 14.6834 21.0976 15.3166 20.7071 15.7071L15.7071 20.7071C15.5196 20.8946 15.2652 21 15 21C14.7348 21 14.4804 20.8946 14.2929 20.7071L9.29289 15.7071C8.90237 15.3166 8.90237 14.6834 9.29289 14.2929C9.68342 13.9024 10.3166 13.9024 10.7071 14.2929L14 17.5858V10C14 9.44772 14.4477 9 15 9Z" fill="#D6D6D6"/>
</svg>
