<svg width="26" height="26" viewBox="0 0 26 26" fill="none" xmlns="http://www.w3.org/2000/svg">
<path d="M25.5295 10.8243L23.2983 8.97025L21.4972 7.47674L13.567 0.858962C13.5132 0.807461 13.4594 0.781711 13.3788 0.730211C13.3788 0.730211 13.3519 0.730211 13.3519 0.704461C13.3519 0.704461 13.325 0.704461 13.325 0.678711H13.2982H13.2713C13.2713 0.678711 13.2713 0.678711 13.2444 0.678711H13.2175C13.2175 0.678711 13.2175 0.678711 13.1906 0.678711H13.1637C13.1637 0.678711 13.1637 0.678711 13.1369 0.678711H13.11H13.0831C12.9487 0.678711 12.7874 0.678711 12.653 0.755961H12.6261H12.5992C12.5992 0.755961 12.5992 0.755961 12.5723 0.755961H12.5455C12.5455 0.755961 12.5186 0.755961 12.5186 0.781711C12.5186 0.781711 12.4917 0.781711 12.4917 0.807461L12.4648 0.833212L12.4379 0.858962L4.15824 7.70849L2.38402 9.1505L0.448506 10.85C0.0721564 11.159 0.0452742 11.6998 0.36786 12.0603C0.556034 12.2663 0.797973 12.3435 1.03991 12.3435C1.25497 12.3435 1.47003 12.2663 1.63132 12.1375L2.54531 11.3908V21.6136C2.54531 23.6478 4.10447 25.3216 6.03998 25.3216H20.0187C21.9273 25.3216 23.5134 23.6478 23.5134 21.6136V11.365L24.4273 12.1118C24.5886 12.2405 24.8037 12.3178 25.0188 12.3178C25.2607 12.3178 25.5295 12.2148 25.6908 12.0345C25.9596 11.674 25.9059 11.1333 25.5295 10.8243Z" fill="#D6D6D6"/>
</svg>
