<svg width="19" height="19" viewBox="0 0 19 19" fill="none" xmlns="http://www.w3.org/2000/svg">
<path d="M12.9514 0.376953C11.625 0.376953 10.4228 0.625522 9.48328 1.09381C8.54449 1.5621 7.77289 2.32482 7.77289 3.33611V6.29527C7.77289 6.3907 7.8047 6.48317 7.8195 6.57269C7.07899 6.38452 6.31755 6.2913 5.55352 6.29527C4.22708 6.29527 3.02492 6.54383 2.08539 7.01212C1.1466 7.48041 0.375 8.24313 0.375 9.25442V15.1727C0.375 16.184 1.1466 16.9467 2.08613 17.415C3.02492 17.8833 4.22708 18.1319 5.55352 18.1319C6.87996 18.1319 8.08212 17.8833 9.02165 17.415C9.95971 16.9467 10.732 16.184 10.732 15.1727V14.8724C11.4557 15.068 12.2017 15.169 12.9514 15.1727C14.2779 15.1727 15.48 14.9242 16.4195 14.4559C17.3576 13.9876 18.1299 13.2249 18.1299 12.2136V3.33611C18.1299 2.32482 17.3583 1.5621 16.4188 1.09381C15.4808 0.625522 14.2786 0.376953 12.9514 0.376953ZM12.9514 1.85653C14.0781 1.85653 15.0813 2.09918 15.7486 2.43431C16.4166 2.76943 16.6504 3.12231 16.6504 3.33611C16.6504 3.55065 16.4166 3.90279 15.7486 4.23791C15.082 4.57304 14.0781 4.81569 12.9514 4.81569C11.8247 4.81569 10.8216 4.57304 10.1543 4.23791C9.48624 3.90279 9.25247 3.54991 9.25247 3.33611C9.25247 3.12157 9.48624 2.76943 10.1543 2.43431C10.8208 2.09918 11.8247 1.85653 12.9514 1.85653ZM9.25247 5.44007C9.33015 5.48298 9.40265 5.53846 9.48402 5.57841C10.4228 6.0467 11.625 6.29527 12.9514 6.29527C14.2779 6.29527 15.48 6.0467 16.4195 5.57841C16.5002 5.53846 16.5727 5.48298 16.6504 5.44007V6.29527C16.6504 6.5098 16.4166 6.86194 15.7486 7.19707C15.0813 7.53219 14.0781 7.77484 12.9514 7.77484C11.8247 7.77484 10.8216 7.53219 10.1543 7.19707C9.48624 6.86194 9.25247 6.50906 9.25247 6.29527V5.44007ZM5.55352 7.77484C6.68022 7.77484 7.68338 8.01749 8.35067 8.35262C9.01869 8.68774 9.25247 9.04062 9.25247 9.25442C9.25247 9.46896 9.01869 9.8211 8.35067 10.1562C7.68338 10.4913 6.68022 10.734 5.55352 10.734C4.42682 10.734 3.42367 10.4913 2.75638 10.1562C2.08835 9.8211 1.85458 9.46822 1.85458 9.25442C1.85458 9.03988 2.08835 8.68774 2.75638 8.35262C3.42293 8.01749 4.42682 7.77484 5.55352 7.77484ZM16.6504 8.39923V9.25442C16.6504 9.46896 16.4166 9.8211 15.7486 10.1562C15.0813 10.4913 14.0781 10.734 12.9514 10.734C12.1978 10.7381 11.4484 10.6209 10.732 10.387V9.25442C10.732 9.15899 10.7002 9.06651 10.6854 8.977C11.3734 9.15603 12.1362 9.25442 12.9514 9.25442C14.2779 9.25442 15.48 9.00585 16.4195 8.53757C16.5002 8.49762 16.5727 8.44213 16.6504 8.39923ZM1.85458 11.3584C1.93226 11.4013 2.00476 11.4568 2.08613 11.4967C3.02492 11.965 4.22708 12.2136 5.55352 12.2136C6.87996 12.2136 8.08212 11.965 9.02165 11.4967C9.10229 11.4568 9.17479 11.4013 9.25247 11.3584V12.2136C9.25247 12.4281 9.01869 12.7803 8.35067 13.1154C7.68338 13.4505 6.68022 13.6932 5.55352 13.6932C4.42682 13.6932 3.42367 13.4505 2.75638 13.1154C2.08835 12.7803 1.85458 12.4274 1.85458 12.2136V11.3584ZM16.6504 11.3584V12.2136C16.6504 12.4281 16.4166 12.7803 15.7486 13.1154C15.0813 13.4505 14.0781 13.6932 12.9514 13.6932C12.1103 13.6932 11.3505 13.5748 10.732 13.3691V11.9362C11.4112 12.1152 12.151 12.2136 12.9514 12.2136C14.2779 12.2136 15.48 11.965 16.4195 11.4967C16.5002 11.4568 16.5727 11.4013 16.6504 11.3584ZM1.85458 14.3175C1.93226 14.3604 2.00476 14.4159 2.08613 14.4559C3.02492 14.9242 4.22708 15.1727 5.55352 15.1727C6.87996 15.1727 8.08212 14.9242 9.02165 14.4559C9.10229 14.4159 9.17479 14.3604 9.25247 14.3175V15.1727C9.25247 15.3873 9.01869 15.7394 8.35067 16.0745C7.68338 16.4097 6.68022 16.6523 5.55352 16.6523C4.42682 16.6523 3.42367 16.4097 2.75638 16.0745C2.08835 15.7394 1.85458 15.3865 1.85458 15.1727V14.3175Z" fill="white" fill-opacity="0.78"/>
</svg>
