<svg width="169" height="28" viewBox="0 0 169 28" fill="none" xmlns="http://www.w3.org/2000/svg">
<defs>
<linearGradient id="paint0_linear_557_11580" x1="84.5" y1="-10" x2="84.5" y2="40" gradientUnits="userSpaceOnUse">
<stop stop-color="#B8872F"/>
<stop offset="0.482292" stop-color="#F5E075"/>
<stop offset="1" stop-color="#B8872F"/>
</linearGradient>
</defs>
<path d="M16.7383 22.8867V27H3.85352V22.8867H16.7383ZM5.55859 1.40625V27H0.285156V1.40625H5.55859ZM24.7891 7.98047V27H19.709V7.98047H24.7891ZM19.3926 3.02344C19.3926 2.28516 19.6504 1.67578 20.166 1.19531C20.6816 0.714844 21.373 0.474609 22.2402 0.474609C23.0957 0.474609 23.7812 0.714844 24.2969 1.19531C24.8242 1.67578 25.0879 2.28516 25.0879 3.02344C25.0879 3.76172 24.8242 4.37109 24.2969 4.85156C23.7812 5.33203 23.0957 5.57227 22.2402 5.57227C21.373 5.57227 20.6816 5.33203 20.166 4.85156C19.6504 4.37109 19.3926 3.76172 19.3926 3.02344ZM33.9297 12.041V27H28.8672V7.98047H33.6133L33.9297 12.041ZM33.1914 16.8223H31.8203C31.8203 15.416 32.002 14.1504 32.3652 13.0254C32.7285 11.8887 33.2383 10.9219 33.8945 10.125C34.5508 9.31641 35.3301 8.70117 36.2324 8.2793C37.1465 7.8457 38.166 7.62891 39.291 7.62891C40.1816 7.62891 40.9961 7.75781 41.7344 8.01562C42.4727 8.27344 43.1055 8.68359 43.6328 9.24609C44.1719 9.80859 44.582 10.5527 44.8633 11.4785C45.1562 12.4043 45.3027 13.5352 45.3027 14.8711V27H40.2051V14.8535C40.2051 14.0098 40.0879 13.3535 39.8535 12.8848C39.6191 12.416 39.2734 12.0879 38.8164 11.9004C38.3711 11.7012 37.8203 11.6016 37.1641 11.6016C36.4844 11.6016 35.8926 11.7363 35.3887 12.0059C34.8965 12.2754 34.4863 12.6504 34.1582 13.1309C33.8418 13.5996 33.6016 14.1504 33.4375 14.7832C33.2734 15.416 33.1914 16.0957 33.1914 16.8223ZM60.3848 22.8516V0H65.4824V27H60.8945L60.3848 22.8516ZM48.3613 17.7188V17.3496C48.3613 15.8965 48.5254 14.5781 48.8535 13.3945C49.1816 12.1992 49.6621 11.1738 50.2949 10.3184C50.9277 9.46289 51.707 8.80078 52.6328 8.33203C53.5586 7.86328 54.6133 7.62891 55.7969 7.62891C56.9102 7.62891 57.8828 7.86328 58.7148 8.33203C59.5586 8.80078 60.2734 9.46875 60.8594 10.3359C61.457 11.1914 61.9375 12.2051 62.3008 13.377C62.6641 14.5371 62.9277 15.8086 63.0918 17.1914V18C62.9277 19.3242 62.6641 20.5547 62.3008 21.6914C61.9375 22.8281 61.457 23.8242 60.8594 24.6797C60.2734 25.5234 59.5586 26.1797 58.7148 26.6484C57.8711 27.1172 56.8867 27.3516 55.7617 27.3516C54.5781 27.3516 53.5234 27.1113 52.5977 26.6309C51.6836 26.1504 50.9102 25.4766 50.2773 24.6094C49.6562 23.7422 49.1816 22.7227 48.8535 21.5508C48.5254 20.3789 48.3613 19.1016 48.3613 17.7188ZM53.4238 17.3496V17.7188C53.4238 18.5039 53.4824 19.2363 53.5996 19.916C53.7285 20.5957 53.9336 21.1992 54.2148 21.7266C54.5078 22.2422 54.8828 22.6465 55.3398 22.9395C55.8086 23.2207 56.377 23.3613 57.0449 23.3613C57.9121 23.3613 58.627 23.168 59.1895 22.7812C59.752 22.3828 60.1797 21.8379 60.4727 21.1465C60.7773 20.4551 60.9531 19.6582 61 18.7559V16.4531C60.9648 15.7148 60.8594 15.0527 60.6836 14.4668C60.5195 13.8691 60.2734 13.3594 59.9453 12.9375C59.6289 12.5156 59.2305 12.1875 58.75 11.9531C58.2812 11.7188 57.7246 11.6016 57.0801 11.6016C56.4238 11.6016 55.8613 11.7539 55.3926 12.0586C54.9238 12.3516 54.543 12.7559 54.25 13.2715C53.9688 13.7871 53.7578 14.3965 53.6172 15.0996C53.4883 15.791 53.4238 16.541 53.4238 17.3496ZM79.7031 22.7109V14.2383C79.7031 13.6289 79.6035 13.1074 79.4043 12.6738C79.2051 12.2285 78.8945 11.8828 78.4727 11.6367C78.0625 11.3906 77.5293 11.2676 76.873 11.2676C76.3105 11.2676 75.8242 11.3672 75.4141 11.5664C75.0039 11.7539 74.6875 12.0293 74.4648 12.3926C74.2422 12.7441 74.1309 13.1602 74.1309 13.6406H69.0684C69.0684 12.832 69.2559 12.0645 69.6309 11.3379C70.0059 10.6113 70.5508 9.97266 71.2656 9.42188C71.9805 8.85938 72.8301 8.41992 73.8145 8.10352C74.8105 7.78711 75.9238 7.62891 77.1543 7.62891C78.6309 7.62891 79.9434 7.875 81.0918 8.36719C82.2402 8.85938 83.1426 9.59766 83.7988 10.582C84.4668 11.5664 84.8008 12.7969 84.8008 14.2734V22.4121C84.8008 23.4551 84.8652 24.3105 84.9941 24.9785C85.123 25.6348 85.3105 26.209 85.5566 26.7012V27H80.4414C80.1953 26.4844 80.0078 25.8398 79.8789 25.0664C79.7617 24.2812 79.7031 23.4961 79.7031 22.7109ZM80.3711 15.416L80.4062 18.2812H77.5762C76.9082 18.2812 76.3281 18.3574 75.8359 18.5098C75.3438 18.6621 74.9395 18.8789 74.623 19.1602C74.3066 19.4297 74.0723 19.7461 73.9199 20.1094C73.7793 20.4727 73.709 20.8711 73.709 21.3047C73.709 21.7383 73.8086 22.1309 74.0078 22.4824C74.207 22.8223 74.4941 23.0918 74.8691 23.291C75.2441 23.4785 75.6836 23.5723 76.1875 23.5723C76.9492 23.5723 77.6113 23.4199 78.1738 23.1152C78.7363 22.8105 79.1699 22.4355 79.4746 21.9902C79.791 21.5449 79.9551 21.123 79.9668 20.7246L81.3027 22.8691C81.1152 23.3496 80.8574 23.8477 80.5293 24.3633C80.2129 24.8789 79.8086 25.3652 79.3164 25.8223C78.8242 26.2676 78.2324 26.6367 77.541 26.9297C76.8496 27.2109 76.0293 27.3516 75.0801 27.3516C73.873 27.3516 72.7773 27.1113 71.793 26.6309C70.8203 26.1387 70.0469 25.4648 69.4727 24.6094C68.9102 23.7422 68.6289 22.7578 68.6289 21.6562C68.6289 20.6602 68.8164 19.7754 69.1914 19.002C69.5664 18.2285 70.1172 17.5781 70.8438 17.0508C71.582 16.5117 72.502 16.1074 73.6035 15.8379C74.7051 15.5566 75.9824 15.416 77.4355 15.416H80.3711ZM118.27 13.623V23.7656C117.871 24.2461 117.256 24.7676 116.424 25.3301C115.592 25.8809 114.52 26.3555 113.207 26.7539C111.895 27.1523 110.307 27.3516 108.443 27.3516C106.791 27.3516 105.285 27.082 103.926 26.543C102.566 25.9922 101.395 25.1895 100.41 24.1348C99.4375 23.0801 98.6875 21.791 98.1602 20.2676C97.6328 18.7324 97.3691 16.9805 97.3691 15.0117V13.4121C97.3691 11.4434 97.6211 9.69141 98.125 8.15625C98.6406 6.62109 99.373 5.32617 100.322 4.27148C101.271 3.2168 102.402 2.41406 103.715 1.86328C105.027 1.3125 106.486 1.03711 108.092 1.03711C110.318 1.03711 112.146 1.40039 113.576 2.12695C115.006 2.8418 116.096 3.83789 116.846 5.11523C117.607 6.38086 118.076 7.83398 118.252 9.47461H113.137C113.008 8.60742 112.762 7.85156 112.398 7.20703C112.035 6.5625 111.514 6.05859 110.834 5.69531C110.166 5.33203 109.299 5.15039 108.232 5.15039C107.354 5.15039 106.568 5.33203 105.877 5.69531C105.197 6.04688 104.623 6.56836 104.154 7.25977C103.686 7.95117 103.328 8.80664 103.082 9.82617C102.836 10.8457 102.713 12.0293 102.713 13.377V15.0117C102.713 16.3477 102.842 17.5312 103.1 18.5625C103.357 19.582 103.738 20.4434 104.242 21.1465C104.758 21.8379 105.391 22.3594 106.141 22.7109C106.891 23.0625 107.764 23.2383 108.76 23.2383C109.592 23.2383 110.283 23.168 110.834 23.0273C111.396 22.8867 111.848 22.7168 112.188 22.5176C112.539 22.3066 112.809 22.1074 112.996 21.9199V17.3848H108.18V13.623H118.27ZM121.398 17.6836V17.3145C121.398 15.9199 121.598 14.6367 121.996 13.4648C122.395 12.2812 122.975 11.2559 123.736 10.3887C124.498 9.52148 125.436 8.84766 126.549 8.36719C127.662 7.875 128.939 7.62891 130.381 7.62891C131.822 7.62891 133.105 7.875 134.23 8.36719C135.355 8.84766 136.299 9.52148 137.061 10.3887C137.834 11.2559 138.42 12.2812 138.818 13.4648C139.217 14.6367 139.416 15.9199 139.416 17.3145V17.6836C139.416 19.0664 139.217 20.3496 138.818 21.5332C138.42 22.7051 137.834 23.7305 137.061 24.6094C136.299 25.4766 135.361 26.1504 134.248 26.6309C133.135 27.1113 131.857 27.3516 130.416 27.3516C128.975 27.3516 127.691 27.1113 126.566 26.6309C125.453 26.1504 124.51 25.4766 123.736 24.6094C122.975 23.7305 122.395 22.7051 121.996 21.5332C121.598 20.3496 121.398 19.0664 121.398 17.6836ZM126.461 17.3145V17.6836C126.461 18.4805 126.531 19.2246 126.672 19.916C126.812 20.6074 127.035 21.2168 127.34 21.7441C127.656 22.2598 128.066 22.6641 128.57 22.957C129.074 23.25 129.689 23.3965 130.416 23.3965C131.119 23.3965 131.723 23.25 132.227 22.957C132.73 22.6641 133.135 22.2598 133.439 21.7441C133.744 21.2168 133.967 20.6074 134.107 19.916C134.26 19.2246 134.336 18.4805 134.336 17.6836V17.3145C134.336 16.541 134.26 15.8145 134.107 15.1348C133.967 14.4434 133.738 13.834 133.422 13.3066C133.117 12.7676 132.713 12.3457 132.209 12.041C131.705 11.7363 131.096 11.584 130.381 11.584C129.666 11.584 129.057 11.7363 128.553 12.041C128.061 12.3457 127.656 12.7676 127.34 13.3066C127.035 13.834 126.812 14.4434 126.672 15.1348C126.531 15.8145 126.461 16.541 126.461 17.3145ZM147.871 0V27H142.791V0H147.871ZM163.287 22.8516V0H168.385V27H163.797L163.287 22.8516ZM151.264 17.7188V17.3496C151.264 15.8965 151.428 14.5781 151.756 13.3945C152.084 12.1992 152.564 11.1738 153.197 10.3184C153.83 9.46289 154.609 8.80078 155.535 8.33203C156.461 7.86328 157.516 7.62891 158.699 7.62891C159.812 7.62891 160.785 7.86328 161.617 8.33203C162.461 8.80078 163.176 9.46875 163.762 10.3359C164.359 11.1914 164.84 12.2051 165.203 13.377C165.566 14.5371 165.83 15.8086 165.994 17.1914V18C165.83 19.3242 165.566 20.5547 165.203 21.6914C164.84 22.8281 164.359 23.8242 163.762 24.6797C163.176 25.5234 162.461 26.1797 161.617 26.6484C160.773 27.1172 159.789 27.3516 158.664 27.3516C157.48 27.3516 156.426 27.1113 155.5 26.6309C154.586 26.1504 153.812 25.4766 153.18 24.6094C152.559 23.7422 152.084 22.7227 151.756 21.5508C151.428 20.3789 151.264 19.1016 151.264 17.7188ZM156.326 17.3496V17.7188C156.326 18.5039 156.385 19.2363 156.502 19.916C156.631 20.5957 156.836 21.1992 157.117 21.7266C157.41 22.2422 157.785 22.6465 158.242 22.9395C158.711 23.2207 159.279 23.3613 159.947 23.3613C160.814 23.3613 161.529 23.168 162.092 22.7812C162.654 22.3828 163.082 21.8379 163.375 21.1465C163.68 20.4551 163.855 19.6582 163.902 18.7559V16.4531C163.867 15.7148 163.762 15.0527 163.586 14.4668C163.422 13.8691 163.176 13.3594 162.848 12.9375C162.531 12.5156 162.133 12.1875 161.652 11.9531C161.184 11.7188 160.627 11.6016 159.982 11.6016C159.326 11.6016 158.764 11.7539 158.295 12.0586C157.826 12.3516 157.445 12.7559 157.152 13.2715C156.871 13.7871 156.66 14.3965 156.52 15.0996C156.391 15.791 156.326 16.541 156.326 17.3496Z" fill="url(#paint0_linear_557_11580)"/>
</svg>
