<svg width="161" height="117" viewBox="0 0 161 117" fill="none" xmlns="http://www.w3.org/2000/svg">
<defs>
<linearGradient id="paint0_linear_557_11576" x1="58.5455" y1="0" x2="58.5455" y2="117" gradientUnits="userSpaceOnUse">
<stop stop-color="#B8872F"/>
<stop offset="0.482292" stop-color="#F5E075"/>
<stop offset="1" stop-color="#B8872F"/>
</linearGradient>
<linearGradient id="paint1_linear_557_11576" x1="114.167" y1="12.7178" x2="114.167" y2="76.283" gradientUnits="userSpaceOnUse">
<stop stop-color="#B8872F"/>
<stop offset="0.482292" stop-color="#F5E075"/>
<stop offset="1" stop-color="#B8872F"/>
</linearGradient>
<clipPath id="clip0_557_11576">
<rect width="93.6727" height="63.587" fill="white" transform="translate(67.3281 12.7178)"/>
</clipPath>
</defs>


<path d="M117.091 75.9292L112.095 117H0V113.808H4.4084C8.26167 113.808 11.3639 113.204 13.715 111.996C15.4131 111.19 16.7193 109.81 17.6336 107.854C18.352 106.473 18.7112 102.85 18.7112 96.9823V20.0177C18.7112 14.0354 18.352 10.2965 17.6336 8.80088C16.9152 7.30531 15.4457 6.01106 13.2252 4.91814C11.07 3.7677 8.13105 3.19248 4.4084 3.19248H0V0H64.9738V3.19248H59.1939C55.3406 3.19248 52.2384 3.79646 49.8873 5.00442C48.1892 5.80973 46.8504 7.19027 45.8707 9.14602C45.1523 10.5265 44.7931 14.1504 44.7931 20.0177V94.5664C44.7931 100.549 45.185 104.374 45.9687 106.042C46.7524 107.653 48.2872 108.861 50.573 109.666C52.2057 110.184 56.157 110.442 62.4267 110.442H73.4967C80.5501 110.442 86.428 109.35 91.1303 107.164C95.8326 104.978 99.8818 101.527 103.278 96.8097C106.739 92.0929 110.005 85.1327 113.074 75.9292H117.091Z" fill="url(#paint0_linear_557_11576)"/>
<g clip-path="url(#clip0_557_11576)">
<path d="M159.948 26.9043C155.599 22.7264 151.386 18.4108 147.174 14.0951C146.259 13.1769 145.251 12.7178 143.924 12.7178C123.825 12.7637 103.772 12.7637 83.7187 12.7178C82.6199 12.7178 81.6126 12.9014 80.7885 13.7737C76.4391 18.1812 72.0897 22.5887 67.7861 26.9961C67.0535 28.6489 67.1909 30.3017 68.5644 31.3577C68.8849 31.6791 69.0222 31.7709 69.2511 32.0005C74.15 36.913 79.0488 41.8254 83.9476 46.7838C93.3332 56.2875 102.765 65.7911 112.104 75.3406C113.432 76.672 114.348 76.5343 115.492 75.2947C117.324 73.3205 119.155 71.3922 121.032 69.5099C133.943 56.517 146.9 43.4782 159.856 30.5313C161.23 29.1999 161.459 28.3276 159.948 26.9043ZM88.8922 18.7321C89.2127 18.0894 89.9452 18.273 90.5404 18.273C98.3236 18.273 106.107 18.273 113.844 18.273C121.444 18.273 129.09 18.273 136.69 18.273C137.331 18.273 138.247 17.9516 138.567 18.6862C138.888 19.4208 138.063 19.8799 137.651 20.339C134.263 23.8283 130.784 27.2716 127.396 30.8068C126.251 32.0005 125.473 31.8168 124.42 30.7149C121.444 27.6389 118.377 24.7006 115.401 21.6245C114.21 20.3849 113.432 20.3849 112.242 21.6245C109.312 24.7006 106.198 27.6848 103.222 30.7149C102.169 31.8168 101.345 31.9545 100.201 30.7609C96.7669 27.1798 93.1958 23.7364 89.7163 20.2013C89.2585 19.834 88.5717 19.4208 88.8922 18.7321ZM121.444 35.9488C121.444 36.6375 121.078 37.0507 120.666 37.418C118.789 39.2085 116.912 40.999 115.08 42.8355C114.119 43.7996 113.386 43.7996 112.425 42.8355C110.685 41.045 108.854 39.3003 107.022 37.5557C105.878 36.4538 105.969 35.4897 107.068 34.4797C108.945 32.6891 110.777 30.8527 112.608 29.0162C113.249 28.3735 113.844 28.0521 114.577 28.7867C116.728 30.9445 118.88 33.1023 121.032 35.2601C121.261 35.4438 121.353 35.7652 121.444 35.9488ZM91.0898 42.8355C89.991 43.9833 89.0295 44.0751 87.8392 42.8355C83.6271 38.5658 79.3693 34.296 75.0656 30.0722C74.3331 29.3376 73.921 28.6949 74.8825 27.7766C76.9885 25.7565 79.003 23.6905 81.0632 21.6704C81.2922 21.4868 81.5669 21.3491 81.7042 21.2113C82.5283 21.2113 82.8946 21.7164 83.3524 22.1296C87.5645 26.3534 91.7308 30.5772 95.9428 34.7551C97.1332 35.9488 97.1332 36.8211 95.897 37.9689C94.2488 39.5299 92.6922 41.1827 91.0898 42.8355ZM132.89 49.6763C126.984 55.6447 121.032 61.5672 115.126 67.5357C114.165 68.4998 113.478 68.5916 112.471 67.5816C106.519 61.5672 100.567 55.5529 94.5235 49.5844C93.5621 48.6203 93.6994 47.9775 94.5693 47.1052C96.4464 45.3147 98.2778 43.4782 100.063 41.5959C101.116 40.4481 101.895 40.7236 102.902 41.7336C105.695 44.626 108.579 47.4725 111.418 50.3649C113.569 52.5227 113.615 52.5227 115.721 50.4567C118.651 47.6102 121.673 44.7638 124.512 41.8254C125.61 40.7236 126.389 40.5858 127.488 41.7795C129.182 43.616 131.013 45.3606 132.798 47.1511C133.165 47.5184 133.439 47.9775 133.806 48.4367C133.531 48.8499 133.256 49.309 132.89 49.6763ZM152.348 30.164C148.044 34.3878 143.832 38.7035 139.574 42.9732C139.162 43.3864 138.75 43.8914 137.88 43.8914C137.56 43.6619 137.056 43.3864 136.69 43.0191C134.859 41.1827 133.027 39.3462 131.15 37.5098C130.235 36.6375 130.235 35.9029 131.15 35.0306C135.5 30.7149 139.803 26.3993 144.061 22.0377C145.068 21.0277 145.938 21.0277 146.945 22.0836C148.685 23.9201 150.471 25.7106 152.256 27.4553C153.309 28.4194 153.355 29.1999 152.348 30.164Z" fill="url(#paint1_linear_557_11576)"/>
</g>

</svg>
